<svg xmlns="http://www.w3.org/2000/svg" viewBox="0 0 2426.49 249.12"><title>starwars</title><path d="M573.47,0H196q-47.17,0-56.07,46.17c-5.9,30.77,10,65.64,50.64,101.28,23.1,20.26,19.89,27.24-12.31,27.24H0v74.12H257.57c36,0,53.72-24.37,54.38-55.17s-17.45-62.46-54.38-95.11q-31-25.86,13-24.46H381.1V248.82h80.29V74.06H573.47Z" transform="translate(0 0)"/><path d="M621.3,0,540.14,248.81h88.5L644.22,204h73.35l15.52,44.82h93.36L743.89,0Zm26.14,153.69,35.42-98.58,32.62,98.58Z" transform="translate(0 0)"/><polygon points="1518.5 0 1494 73.93 1471.91 0 1373.45 0 1351.36 73.93 1326.86 0 1234.77 0 1315.94 248.81 1395.46 248.81 1422.69 165.69 1449.9 248.81 1529.42 248.81 1610.59 0 1518.5 0"/><path d="M2319,74.16h107.53V.1H2244.4q-47.15,0-56.08,46.18T2239,147.56q36.08,28.69-12.33,27.23h-42.33v-.1l-22.44,0c-40.61-.16-51.56-1.34-63.41-9.75-8.72-6.19-8.66-6.47-16-14,19.13-4.59,27.66-10.91,37.9-18.94a63.86,63.86,0,0,0,21.53-30c4.09-11.93,5.47-29.35-.72-51-4.35-15.27-15.28-26.49-28-35.18S2084.19,0,2064.27,0H1887.79V248.81H1977V166.64c27.83,32.91,47.87,52.28,66.31,68.8,14.64,13.15,41.57,14.15,118.08,13.55l13.27-.1v0H2306q53.26-9,54.38-55.18c.64-30.76-17.14-62.85-54.38-95.1C2285.62,81,2289.67,74.16,2319,74.16Zm-269,30q-5.77,3.72-10.79,3.71H1977V62h62.1c2.68,0,6.09,1.54,10.13,4.59s6.35,9.35,6.93,18.88C2055.94,95.47,2053.84,101.71,2050,104.17Z" transform="translate(0 0)"/><path d="M1058.48,164.91c-8.72-6.17-8.66-6.47-16-14,19.14-4.59,27.67-10.91,37.9-18.94a63.93,63.93,0,0,0,21.53-30c4.11-11.93,5.49-29.35-.7-51-4.36-15.27-15.29-26.49-28-35.18S1044.18,0,1024.26,0H847.78V248.81H937V166.64c27.85,32.91,47.89,52.28,66.32,68.8,14.65,13.15,41.58,13.75,118.07,13.55l70.29-.18V174.69l-69.81,0C1081.29,174.5,1070.34,173.3,1058.48,164.91ZM1010,104.17c-3.85,2.48-7.48,3.71-10.8,3.71H937V62h62.09c2.68,0,6.12,1.54,10.15,4.59s6.36,9.35,6.94,18.88C1016,95.47,1013.85,101.71,1010,104.17Z" transform="translate(0 0)"/><path d="M1659.73.1l-81.17,248.82h88.52l15.58-44.83H1756l15.49,44.83h93.37L1782.31.1Zm26.14,153.7,35.41-98.59,32.63,98.59Z" transform="translate(0 0)"/></svg>